# xmcd CD database file
#
# Track frame offsets:
#	150
#	50875
#	58710
#	85645
#	127280
#	156377
#	182677
#	204282
#	220675
#
# Disc length: 3443 seconds
#
# Revision: 0
# Processed by: cddbd v1.5.1PL2 Copyright (c) Steve Scherf et al.
# Submitted via: CDex 1.51
#
DISCID=820d7109
DTITLE=Ray Spiegel Ensemble - Raga Jazz
DYEAR=2004
DGENRE=Jazz
TTITLE0=Amber
TTITLE1=I Remember Autumn
TTITLE2=I Remember Autumn (Second Part)
TTITLE3=Barun's Boogie
TTITLE4=Dream Time
TTITLE5=El Camino Alto
TTITLE6=Night Vision
TTITLE7=The Cosmic Causeway (Space)
TTITLE8=The Cosmic Causeway (When Hari Met Siloo)
EXTD=YEAR: 2004
EXTT0=
EXTT1=
EXTT2=
EXTT3=
EXTT4=
EXTT5=
EXTT6=
EXTT7=
EXTT8=
PLAYORDER=
